# xmcd
#
# Track frame offsets: 
#        150
#        14529
#        32366
#        59320
#        73802
#        92909
#        111194
#        132279
#        155014
#        173981
#        189614
#        207709
#        224767
#        244029
#        276323
#
# Disc length: 4147 seconds
#
# Revision: 0
# Processed by: cddbd v1.5.2PL0 Copyright (c) Steve Scherf et al.
# Submitted via: ExactAudioCopy v0.95a5
#
DISCID=ec10310f
DTITLE=CRossroads And Friends - Live At Linoul
DYEAR=2011
DGENRE=Blues
TTITLE0=Crossroads
TTITLE1=One Step At A Time
TTITLE2=Stormy Monday Blues
TTITLE3=You Upset Me Baby
TTITLE4=Little Wing
TTITLE5=Ain't No Sunshine
TTITLE6=Put It Where You Want It
TTITLE7=Dimplesw
TTITLE8=Hey Mama
TTITLE9=Let';s Work Together
TTITLE10=Who's Been Talking
TTITLE11=She Likes To Boogie Reasl Low
TTITLE12=Killing Floor
TTITLE13=Talk To Your Daughter
TTITLE14=Roadhouse Blues
EXTD=
EXTT0=
EXTT1=
EXTT2=
EXTT3=
EXTT4=
EXTT5=
EXTT6=
EXTT7=
EXTT8=
EXTT9=
EXTT10=
EXTT11=
EXTT12=
EXTT13=
EXTT14=
PLAYORDER=
